<?xml version="1.0" standalone="no"?>
<!DOCTYPE svg PUBLIC "-//W3C//DTD SVG 20010904//EN"
 "http://www.w3.org/TR/2001/REC-SVG-20010904/DTD/svg10.dtd">
<svg version="1.0" xmlns="http://www.w3.org/2000/svg"
 width="1135.000000pt" height="1135.000000pt" viewBox="0 0 1135.000000 1135.000000"
 preserveAspectRatio="xMidYMid meet">

<g transform="translate(0.000000,1135.000000) scale(0.100000,-0.100000)"
fill="#000000" stroke="none">
<path d="M6650 10799 c-130 -17 -345 -72 -485 -124 -217 -82 -505 -255 -688
-415 -5 -4 34 -28 87 -54 l95 -46 68 52 c204 154 418 263 663 336 196 58 261
67 525 67 265 0 360 -13 550 -76 111 -36 305 -130 405 -196 382 -251 660 -672
766 -1160 41 -191 54 -350 54 -676 l0 -297 -372 2 -373 3 -6 280 c-5 216 -12
308 -28 403 -105 610 -458 942 -1001 942 -132 0 -230 -16 -346 -56 -131 -44
-131 -38 -7 -105 l110 -58 74 15 c55 12 107 15 199 11 189 -8 313 -49 453
-152 139 -102 242 -271 297 -486 40 -161 52 -285 54 -557 l1 -237 -240 -5
c-234 -5 -241 -6 -297 -32 -75 -35 -140 -97 -169 -161 -23 -49 -24 -67 -29
-290 l-5 -239 -170 -2 c-131 -3 -181 -7 -217 -21 -62 -22 -142 -95 -176 -159
l-27 -51 0 -910 0 -910 28 -56 c32 -66 99 -132 165 -162 41 -19 68 -22 224
-25 l177 -4 3 -291 3 -292 30 -54 c52 -94 140 -148 256 -158 l69 -6 0 -308 0
-307 96 -269 c198 -553 447 -1262 544 -1548 213 -628 216 -636 278 -662 70
-29 148 0 181 66 20 40 72 184 425 1191 220 629 368 1041 417 1162 20 49 22
75 27 364 l5 311 62 5 c118 10 216 75 267 176 22 45 23 57 26 334 l3 287 302
3 c285 3 305 4 349 25 66 30 133 96 165 162 l28 56 0 900 0 900 -26 55 c-35
74 -109 144 -178 172 -52 20 -78 22 -326 25 -148 2 -280 3 -292 3 l-23 0 0
230 c0 206 -2 235 -20 284 -40 107 -133 181 -243 195 l-52 6 -3 120 c-6 210
-40 317 -134 420 -34 37 -73 66 -121 90 -66 32 -181 64 -233 65 -19 0 -22 8
-28 67 -9 90 -50 284 -88 412 -88 306 -236 578 -443 814 -285 324 -683 535
-1136 601 -115 17 -433 20 -549 5z m2353 -2131 c55 -16 120 -78 147 -140 20
-44 24 -75 28 -185 l4 -133 -146 0 -146 0 0 241 0 241 38 -7 c20 -3 54 -11 75
-17z m431 -673 c62 -29 66 -48 66 -292 l0 -218 -1145 0 -1145 0 -2 155 c-5
290 1 317 75 351 40 18 82 19 1080 19 908 0 1043 -2 1071 -15z m856 -727 c18
-13 41 -39 52 -58 17 -33 18 -72 16 -887 -3 -843 -3 -852 -24 -880 -11 -15
-36 -36 -55 -45 -32 -17 -138 -18 -1794 -18 l-1761 0 -44 23 c-86 44 -80 -21
-80 937 0 826 1 846 20 878 11 18 34 41 52 52 33 20 54 20 1809 20 l1776 0 33
-22z m-790 -2333 c0 -209 -3 -261 -15 -285 -33 -63 30 -60 -1132 -60 -1040 0
-1059 0 -1091 20 -18 11 -37 32 -42 46 -6 14 -10 139 -10 280 l0 254 1145 0
1145 0 0 -255z m-350 -623 c0 -44 -3 -161 -7 -260 l-6 -182 -789 0 -788 0 0
260 0 260 795 0 795 0 0 -78z m-65 -659 c-36 -94 -227 -629 -295 -828 -27 -77
-98 -282 -160 -455 -62 -173 -125 -354 -142 -402 -16 -49 -34 -88 -39 -88 -5
0 -9 184 -9 445 l0 446 -25 24 c-33 34 -93 34 -132 1 l-28 -24 -5 -444 c-4
-337 -8 -437 -16 -418 -6 14 -36 97 -67 185 -55 159 -298 851 -461 1313 -47
133 -86 247 -86 252 0 7 258 10 736 10 697 0 736 -1 729 -17z"/>
<path d="M6939 6831 c-39 -40 -40 -93 -2 -133 26 -28 28 -28 149 -28 117 0
124 1 153 26 43 36 44 93 2 135 -29 29 -30 29 -151 29 -121 0 -122 0 -151 -29z"/>
<path d="M6957 6439 c-42 -24 -60 -106 -32 -145 25 -37 66 -46 180 -42 l107 3
30 34 c25 28 29 39 24 70 -3 23 -17 46 -36 64 -29 26 -34 27 -143 27 -61 0
-120 -5 -130 -11z"/>
<path d="M6936 5999 c-36 -42 -35 -89 3 -131 27 -30 34 -33 105 -36 102 -6
161 4 194 33 22 19 27 31 27 70 0 39 -5 51 -28 71 -26 23 -35 24 -152 24
l-123 0 -26 -31z"/>
<path d="M5148 10021 c-64 -21 -98 -40 -255 -139 -340 -216 -798 -430 -1223
-572 -517 -173 -1039 -284 -1760 -375 -195 -24 -377 -51 -405 -59 -71 -21
-163 -78 -212 -132 -51 -55 -109 -170 -123 -242 -5 -29 -20 -195 -32 -370 -26
-381 -32 -1124 -10 -1402 29 -375 81 -777 137 -1056 l33 -168 -55 -61 c-115
-125 -239 -324 -303 -483 -44 -110 -92 -284 -111 -407 -21 -132 -16 -410 10
-534 97 -463 408 -747 914 -837 130 -23 384 -21 552 5 552 84 1040 277 1610
638 163 104 205 140 205 178 0 58 -47 105 -104 105 -13 0 -71 -31 -128 -68
-485 -318 -904 -512 -1322 -612 -188 -45 -297 -61 -472 -67 -259 -9 -454 25
-629 112 -253 126 -410 355 -456 664 -13 94 -8 386 8 402 6 6 18 -9 32 -43 38
-93 99 -184 177 -267 123 -131 277 -220 461 -267 420 -106 893 0 1528 346 546
297 1184 829 1828 1526 67 73 123 131 124 130 7 -7 2 -4331 -6 -4329 -21 5
-301 176 -432 264 -356 240 -659 499 -941 806 -175 190 -385 446 -443 540 0 1
-43 -15 -93 -36 l-93 -38 55 -77 c213 -296 597 -712 886 -960 155 -133 425
-333 595 -443 255 -164 541 -323 581 -323 42 0 377 183 584 318 111 73 302
209 366 261 17 15 60 48 95 76 195 151 565 514 760 745 90 107 240 299 262
336 5 9 -55 209 -66 221 -2 2 -17 -16 -32 -39 -112 -172 -396 -510 -600 -713
-339 -340 -715 -631 -1095 -850 -73 -42 -143 -83 -156 -92 l-24 -15 0 2311 c0
2559 5 2367 -65 2397 -19 8 -46 12 -60 8 -16 -4 -85 -75 -190 -195 -704 -805
-1400 -1390 -2060 -1730 -542 -280 -989 -356 -1345 -230 -113 40 -184 85 -275
176 -65 64 -90 99 -128 175 -90 180 -110 348 -57 484 25 64 139 241 154 238 6
0 24 -59 41 -129 68 -272 190 -634 229 -679 21 -24 126 -66 199 -78 l37 -7
-22 53 c-59 145 -194 569 -247 778 -152 591 -226 1076 -262 1710 -21 366 2
1209 41 1514 11 88 46 162 95 203 67 57 115 70 410 108 423 54 596 81 866 135
919 183 1608 443 2264 853 88 56 183 109 210 120 92 35 133 20 428 -157 565
-338 1050 -543 1656 -697 85 -21 161 -39 167 -39 9 0 2 33 -22 102 -18 55 -35
102 -37 104 -1 2 -72 21 -157 43 -523 135 -1009 347 -1561 681 -197 119 -287
156 -407 165 -50 4 -82 0 -124 -14z"/>
<path d="M5110 9094 c-746 -438 -1668 -734 -2839 -909 -130 -20 -249 -39 -265
-43 -69 -17 -77 -61 -97 -539 -16 -399 6 -912 56 -1308 61 -477 176 -985 317
-1400 45 -134 166 -446 177 -458 9 -9 187 57 184 69 -1 5 -23 59 -48 119 -66
157 -185 518 -244 740 -153 571 -232 1146 -248 1780 -5 233 8 672 23 776 5 36
6 37 62 44 96 11 507 82 697 120 746 148 1414 369 1985 654 96 49 202 104 235
124 l60 35 5 -1081 c4 -850 8 -1087 18 -1104 25 -44 79 -55 132 -28 26 14 37
31 45 74 2 9 4 497 4 1084 l1 1068 73 -41 c395 -223 962 -463 1354 -575 l132
-38 51 46 c28 25 73 57 102 71 29 15 45 27 37 30 -8 3 -75 21 -149 41 -496
135 -1041 366 -1520 645 -85 49 -164 90 -175 89 -11 0 -85 -38 -165 -85z"/>
<path d="M2431 2984 c-41 -8 -78 -15 -83 -16 -12 -4 196 -309 312 -459 309
-396 719 -816 1090 -1115 378 -305 881 -614 1267 -778 239 -101 276 -102 498
-11 561 230 1244 703 1760 1220 147 147 385 409 385 424 0 4 -15 51 -33 105
l-33 98 -47 -57 c-108 -132 -358 -394 -505 -531 -465 -434 -922 -754 -1432
-1003 -196 -96 -275 -125 -332 -123 -76 2 -393 149 -665 308 -717 419 -1328
968 -1840 1656 -71 95 -149 201 -172 236 -47 70 -43 69 -170 46z"/>
</g>
</svg>
