<?xml version="1.0" standalone="no"?>
<!DOCTYPE svg PUBLIC "-//W3C//DTD SVG 20010904//EN"
 "http://www.w3.org/TR/2001/REC-SVG-20010904/DTD/svg10.dtd">
<svg version="1.0" xmlns="http://www.w3.org/2000/svg"
 width="1101.000000pt" height="1101.000000pt" viewBox="0 0 1101.000000 1101.000000"
 preserveAspectRatio="xMidYMid meet">

<g transform="translate(0.000000,1101.000000) scale(0.100000,-0.100000)"
fill="#000000" stroke="none">
<path d="M5435 10421 c-85 -22 -150 -77 -186 -156 -17 -37 -19 -76 -19 -502
l0 -462 -42 -5 c-24 -3 -101 -13 -173 -21 -530 -64 -1075 -264 -1560 -573
-330 -211 -685 -538 -951 -877 -438 -558 -715 -1242 -785 -1937 l-12 -118
-436 0 c-269 0 -450 -4 -473 -10 -57 -16 -119 -69 -150 -129 -23 -44 -28 -66
-28 -125 0 -119 51 -200 155 -248 50 -23 54 -23 475 -24 234 -1 435 -2 448 -3
20 -1 22 -6 22 -49 0 -192 94 -639 199 -943 184 -534 482 -1001 910 -1429 333
-332 601 -524 1049 -749 240 -121 462 -201 721 -261 46 -11 98 -24 115 -29 38
-12 261 -46 409 -62 l107 -12 0 -447 c0 -491 1 -500 61 -573 17 -21 54 -50 83
-65 43 -22 64 -27 131 -27 91 0 137 19 191 77 72 75 69 52 72 575 l3 473 57 0
c52 0 133 11 410 54 51 8 96 17 101 20 4 3 55 17 112 32 149 37 415 128 552
190 281 125 624 331 832 499 583 471 1011 1073 1244 1749 83 241 169 618 186
821 3 39 8 91 11 117 l6 48 451 0 452 0 52 26 c160 78 192 296 63 425 -79 79
-80 79 -581 79 l-436 0 -13 128 c-96 1007 -626 1960 -1447 2599 -372 290 -731
484 -1153 621 -324 106 -471 136 -854 177 l-58 7 3 461 c4 450 3 463 -17 507
-26 58 -77 108 -132 132 -49 22 -132 31 -177 19z m141 -140 c68 -42 64 58 64
-1448 0 -1329 0 -1359 -20 -1390 -56 -92 -203 -82 -252 17 -17 33 -18 119 -18
1380 0 1261 1 1347 18 1380 37 74 138 104 208 61z m-346 -1265 l0 -155 -42 -5
c-163 -20 -230 -31 -363 -57 -301 -59 -611 -170 -870 -310 -209 -113 -198
-107 -315 -185 -466 -316 -845 -739 -1108 -1236 -197 -373 -328 -789 -367
-1158 -3 -30 -8 -74 -11 -97 l-5 -43 -153 0 c-84 0 -155 2 -157 5 -7 7 25 270
51 411 53 298 168 641 310 925 320 638 845 1203 1448 1558 210 124 533 269
757 341 227 72 628 154 778 159 l47 1 0 -154z m810 123 c779 -122 1476 -474
2026 -1024 492 -492 823 -1062 989 -1702 48 -182 113 -617 96 -636 -4 -4 -75
-6 -157 -5 l-149 3 -7 85 c-5 47 -19 148 -33 225 -99 543 -292 987 -620 1427
-183 244 -422 489 -640 654 -503 381 -1014 595 -1610 674 -88 12 -163 24 -167
26 -4 3 -8 73 -8 156 l0 151 78 -7 c42 -4 133 -16 202 -27z m-20 -435 c478
-81 947 -277 1350 -564 316 -225 604 -525 825 -860 289 -435 457 -905 520
-1452 l6 -58 -638 0 c-620 0 -639 -1 -683 -21 -99 -44 -150 -128 -150 -245 0
-85 31 -156 91 -208 72 -61 71 -61 754 -61 l620 0 -3 -60 c-1 -33 -12 -116
-23 -185 -151 -900 -664 -1701 -1399 -2186 -363 -239 -761 -406 -1165 -488
-105 -21 -164 -31 -317 -51 l-37 -5 -3 642 c-3 641 -3 643 -25 684 -46 86
-155 154 -248 154 -115 0 -224 -83 -256 -194 -5 -17 -9 -310 -9 -652 0 -342
-2 -623 -5 -626 -2 -2 -40 -1 -82 4 -326 33 -746 159 -1073 322 -187 93 -480
281 -580 371 -25 22 -77 67 -117 99 -40 32 -123 110 -185 175 -504 523 -816
1175 -902 1884 l-13 107 301 1 c593 1 968 9 1008 19 47 13 122 79 148 131 30
58 35 126 14 200 -15 52 -27 73 -68 114 -32 32 -66 55 -92 63 -31 9 -206 12
-674 12 l-633 0 7 77 c9 94 39 272 67 391 137 584 440 1122 882 1563 181 182
279 263 477 396 420 283 975 486 1442 529 l77 7 3 -649 3 -649 28 -47 c47 -81
138 -131 240 -130 106 0 188 47 235 135 l27 52 1 640 c0 352 1 643 2 646 3 7
131 -7 252 -27z m-2474 -3070 c101 -48 110 -188 15 -251 l-34 -23 -1348 0
-1348 0 -35 30 c-60 53 -70 126 -26 198 40 65 -46 61 1413 62 1206 0 1332 -2
1363 -16z m6634 -6 c53 -37 74 -72 74 -127 0 -56 -20 -93 -67 -121 -31 -19
-61 -20 -1370 -20 -1488 0 -1384 -5 -1428 67 -17 27 -20 45 -17 88 5 58 21 84
73 116 29 18 83 19 1366 19 l1336 0 33 -22z m-1028 -393 c15 -15 -60 -481
-103 -645 -173 -644 -473 -1179 -923 -1647 -285 -297 -623 -546 -990 -730
-274 -138 -460 -206 -786 -288 -161 -40 -487 -95 -567 -95 -10 0 -13 36 -13
155 0 178 -13 159 120 170 274 22 534 89 875 225 146 58 180 75 365 178 424
236 758 531 1061 937 261 350 456 762 563 1191 32 126 86 440 86 498 0 23 3
46 7 49 7 8 297 10 305 2z m-6998 -27 c2 -13 9 -72 16 -133 35 -344 161 -759
328 -1085 426 -828 1116 -1414 2012 -1709 163 -53 309 -86 500 -112 85 -11
170 -23 188 -25 l32 -5 0 -156 0 -155 -87 7 c-75 6 -230 30 -414 65 -25 4 -98
22 -161 39 -1024 275 -1898 995 -2363 1946 -195 398 -317 829 -360 1273 l-8
72 157 0 c153 0 156 0 160 -22z m3423 -1619 c73 -46 68 70 71 -1424 2 -1263 1
-1342 -15 -1375 -55 -107 -212 -107 -265 0 -17 33 -18 119 -18 1367 0 919 3
1340 11 1360 13 34 47 72 74 83 38 16 106 11 142 -11z"/>
<path d="M7195 7279 c-16 -5 -140 -39 -275 -75 -601 -161 -796 -216 -812 -231
-24 -21 -23 -68 1 -92 11 -11 45 -24 78 -31 91 -18 468 -101 470 -104 1 -1
-250 -254 -558 -561 -308 -308 -562 -568 -564 -577 -2 -11 9 -24 33 -38 32
-19 39 -20 59 -8 12 7 197 186 410 398 469 465 704 693 707 688 3 -3 106 -509
106 -520 0 -4 7 -14 16 -22 21 -21 77 -20 96 2 16 18 111 306 223 677 36 121
82 268 101 327 40 126 40 132 14 158 -21 21 -56 24 -105 9z m-25 -143 c0 -3
-24 -81 -53 -173 -30 -92 -83 -264 -118 -380 -35 -117 -66 -213 -69 -213 -3 0
-26 98 -50 217 -25 119 -52 225 -60 235 -11 13 -72 30 -233 62 -196 40 -259
56 -216 56 8 0 181 45 384 99 339 91 415 109 415 97z"/>
<path d="M5472 7078 c-7 -7 -12 -23 -11 -37 1 -24 2 -24 11 6 7 20 19 34 32
36 20 4 20 4 1 6 -12 0 -26 -4 -33 -11z"/>
<path d="M5470 6300 c15 -28 63 -24 68 5 3 19 2 20 -12 1 -15 -18 -17 -18 -41
-2 -26 17 -26 17 -15 -4z"/>
<path d="M5528 5858 c-2 -18 0 -46 3 -63 5 -22 7 -13 8 33 1 67 -4 83 -11 30z"/>
<path d="M6296 5475 c4 -8 11 -15 16 -15 6 0 5 6 -2 15 -7 8 -14 15 -16 15 -2
0 -1 -7 2 -15z"/>
<path d="M5489 4723 c-10 -2 -19 -13 -22 -24 -5 -20 -5 -20 14 -3 17 15 24 16
40 6 15 -10 19 -10 19 2 0 11 -26 30 -33 25 -1 -1 -9 -3 -18 -6z"/>
<path d="M5531 4474 c0 -11 3 -14 6 -6 3 7 2 16 -1 19 -3 4 -6 -2 -5 -13z"/>
</g>
</svg>
